<svg width="834" height="416" viewBox="0 0 834 416" fill="none" xmlns="http://www.w3.org/2000/svg">
<path fill-rule="evenodd" clip-rule="evenodd" d="M88 207.5L102.5 217L100.5 226.5L93 220L88 218.5V230.5L102.5 229.5L112 239L119 240L123.5 238L111 228.5L116.5 223L128 217L115.5 211.5L123.5 208.5V201.5L133.5 191.5L141.5 184.5L133.5 181H128L132.5 172L144 177L150 172V165L157.5 173.5L156.5 165L152.5 160L155.5 154.5L150 152.5L149 162.5L144 160L138 163.5H132.5L130 160L135.5 159L137.5 160.5L140 153.5L130 154.5L125 160.5L126.5 166.5L120.5 160.5L110.5 163.5L109.5 157.5L118 159L123.5 157.5L118 150L122 146L128.5 149L134.5 143.5L138 147.5L141.5 141.5L164.5 143.5L170.5 146L180 147.5L184 142.5L188 136.5V130.5L196 126.5L195 117.5L191.5 118L180 115L184 110L195 115L192 106.5L195 99.5L203 114L208.5 119L211 121H214L210.5 113.5L213.5 107L211 99.5L214 94.5L208.5 87H202L196 88.5L188.5 87.5L189.5 81H193.5L195 74.5L188.5 67L185 63L191.5 55L186 46L175 44L173 48L165.5 52.5L161 49.5L151.5 59L147 64L138.5 70.5L125.5 82.5L118 84.5V75.5L124 71.5L128 73.5L127 65.5L123.5 60.5L138.5 54L142 53V58L146 57V51L140 47L128 36.5L132.5 29L130 24L135.5 20.5L128 13L134.5 9L126 7L112 15.5L104 18.5L103.5 24L101 26.5L104 29.5L107.5 35.5L112 41.5L107.5 47L98 38.5L92.5 41.5L98 49.5H102L101 57L95.5 51L91.5 46L87.5 41.5L73 28H69L64 25.5L62 29L58 27.5L59.5 35.5L55 36.5L48.5 33.5H42.5L40.5 28L34.5 35L28.5 35.5L29.5 41L25.5 44.5L28 49V52L34.5 55.5L40 53L43.5 62.5H39L43.5 67.5L39 69.5L43.5 75L42 80.5L35 83L32.5 82L31.5 90H35L36.5 94.5L40 97L44.5 94H50.5L42 99L40 103.5L46.5 109.5L52.5 115L48 120L61 123.5L55 134.5L48 129.5L45.5 123L40.5 121L42 115L32.5 109.5L30 115L22.5 118.5L24.5 122.5L22.5 126L31.5 126.5L32.5 129.5L38.5 129L38 133.5L34 137L40 141L52 135L54 141L46.5 147.5L38.5 145V150.5L43 149.5L45.5 152.5L48.5 149L51.5 154.5L43.5 158.5L44.5 163L41 163.5L36.5 160.5L31.5 164L37.5 165.5L42.5 170.5L46.5 171V174.5L41.5 176.5H38.5L36.5 182L33 185.5L28 187.5L27.5 193L35 193.5L41 197.5L42.5 201L30.5 197.5L25 196.5L24 191L20.5 194.5L25 200.5L26.5 205L22.5 208.5L25 214L36 212L41 214L37 216.5L43 221L44 228H49L47.5 232.5L53.5 235L52.5 230L55 229.5L51 224.5L57 216.5L61 217.5L62.5 212L70.5 214L71 206.5L76 205L78.5 209.5L88 207.5ZM194.5 91.5H187.5L184.583 90.0415L182.5 91.5L184.5 93.5H188L190.5 97L194 98.5V96L194.5 94V91.5ZM133 51L129.5 52.5L131.5 55L133.5 53L133 51Z" fill="white"/>
<path d="M219 75L227 77.5L223.5 83L228 87H236.5L235 93.5L242 99.5H232L226 112L222 95L213.5 109.5L220 114.5L213 126L208 127.5L207 134.5L198.5 139.5L193.5 152H203L201 159L195 161.5L197 180.5L213 186.5L220 183L230.5 188L239 194L246.5 191L253 200H261.5L263.5 205L269.5 206.5L284.5 216L305.5 205H313.5L317 194L322 192.5V180L309 178.5L305.5 167.5L297 160.5L290 160L288 167.5L284 161L278.5 167.5L277.5 164L279 160L285 157.5L292.5 158L300 159L313.5 160.5L331 153.5L335.5 145.5L340.5 131.5L335.5 116L341.5 105L332 99.5L322 106.5L324 120L312.5 116.5C308.667 117 300.8 118.2 300 119C299.2 119.8 292.667 120 289.5 120L285.5 130H277L281 114H288L269 105L274.5 99.5L271.5 92.5L253 90L245.5 84.5L263.5 86L272.5 77.5L271.5 71.5L262 75L251 66L245.5 67.5L233.5 59.5L223.5 60.5L218 67.5L219 75Z" fill="white"/>
<path d="M70 324L81 316.5L65.5 299L61 300L56.5 290L50 291.5L54 302V309L59 316.5L65.5 313.5L70 317.5V324Z" fill="white"/>
<path d="M43.5 273.5L73.5 285.5L73 289L46.5 282L39.5 276L43.5 273.5Z" fill="white"/>
<path d="M6 230.5L17.5 235L29.5 246L38 261H43.5L45 270.5L40 273L28 263.5L17.5 255L13.5 251L10.5 245L15 243L8.5 237L6 230.5Z" fill="white"/>
<path d="M56 259.5L78.5 273.5L84 266L90 261L93 259L88.5 252.5L96 246L90 238.5L86.5 243C83.5 243.667 77.3 245 76.5 245C75.7 245 72.5 245.333 71 245.5L72 248L64.5 247L62 250.5L65.5 251.5H59L56 256.5V259.5Z" fill="white"/>
<path d="M95.5 281.5L96 273.5L108 281.5L102.5 272.5L107 268.5L98 267.5L100.5 265L108 266H113L116 262.5L111 261L104.5 261.5L96 262.5L93.5 266.5L91.5 270L92.5 273.5L92 280L95.5 281.5Z" fill="white"/>
<path d="M142 359L138.5 356L142 354.5L135.5 353L135 349.5L134 354L128 352.5L123 356H115.5L118.5 360.5L124 362.5L128 358L130.5 361L133.5 360.5H140.5L142 359.5V359Z" fill="white"/>
<path d="M147 356L153.5 353L150.5 349L152.5 347.5L157 352.5L161.5 351.5L164.5 358L159.5 356L158 359.5H153.5L150.5 357L145 360.5L146.5 356H147Z" fill="white"/>
<path d="M109.5 328.5C109.9 328.5 125.667 326.833 133.5 326L135.5 331L133.5 334.5L126.5 332.5L127.5 337.5L126.5 339L120.5 332L116.5 334.5L108 329.5L109.5 328.5Z" fill="white"/>
<path d="M152 286.5L160 286L167 278L179.5 279.5L178 287L183 281.5L190 283.5L191.5 289L190 292.5L193.5 296.5L191 299L201 304L205.5 302.5L209.5 305.5L208.5 309.5H204L206.5 314.5L205 319.5L209.5 325.5L214.5 320L224 311L229.5 313L224 303L226.5 291.5L236.5 279.5L237 271L235.5 267L243.5 259L247 259.5L249 252.5L259 244L261.5 244.5L262.5 249.5L255 251.5L254.5 263L259 260L258.5 257L262 253L265.5 261L261.5 267L256.5 266L248.5 269L246.5 273.5L243.5 270.5L240.5 275.5L243.5 279.5L246 276L249.5 280L247 284.5L252.5 295L258.5 296L259 302.5L261.5 302L264.5 300L268 299.5L274 305.5H277L274 300L279 294L276.5 290L278 286.5L274 285.5L275.5 281L279 282L271.5 276L265.5 281L266 274L271 272.5L269 270.5L281.5 264L280 260.5L271 262L267.5 252.5L266.5 248.5L276 247L279 230.5L284.5 223L292 233.5L297.5 236.5L304.5 230.5H313L318 226L326 230.5L317 235L313 243L310.5 249.5H322.5L332.5 245.5L329 239.5L320.5 238L329 235L335 238L337 231.5L350.5 233.5L358 236.5C357.333 235.5 356.7 234.1 359.5 236.5C362.3 238.9 364.333 241.833 365 243L363.5 248.5L353 247L352 253L349.5 257L346.5 259L342.5 249.5H337L335 255L327.5 251.5L326 257L329 263.5L347.5 261L340.5 266.5L348.5 268L349.5 274L355.5 272L353.5 267L363.5 273L368 269.5L379 276.5L384.5 294L399.5 299L396.5 303L403 304.5L398.5 315L401 321.5L395 330.5L391 351L399.5 359L391 363.5L386.5 360.5L388.5 368.5L386.5 372V382.5L380.5 378L373 392L367.5 390L371 384.5L360.5 386L352 382.5L345 387.5L339.5 378L344 373.5L360.5 379.5L348.5 371L352 363.5L341 357L336.5 363.5L325.5 361.5L323 379.5L307.5 382.5L303.5 384.5L292 378L284.5 381.5H276V389L277.5 403L271.5 402L266.5 410L257.5 402L242.5 408.5H231L221 413L214 403L218.5 394.5L229 397.5L222 386.5L225.5 379.5L218.5 384L213 376L221 368.5L229 377L231 384L241 378L242.5 364.5L254 379.5L266.5 370.5L277.5 376V353L296.5 357L298.5 347.5L285.5 349L272.5 340L283 333L290.5 329L296.5 343L305 338L296.5 325.5L284.5 321.5L281 333L266.5 319.5L261.5 323.5L268 331.5L272.5 336L265.5 340L261.5 331.5L255.5 336L260.5 344L253.513 347.5L251.5 351.5L249.5 344L234 339V357L242.5 359.5L231 364.5V356L221 359L222 349.5L214.5 353L208.5 337.5L202.5 339L201 347.5H190L183 336L200 317.5L190 313L185.5 308.5H176.5L171.5 302L167 305.5L157 302.5L159.5 292.5L152 286.5Z" fill="white"/>
<path d="M144.5 286.5L148 283.5L150.5 285L152.5 279L149.5 276L151 272L137.5 275.5L146.5 281L142.5 282.5L144.5 286.5Z" fill="white"/>
<path d="M339.5 387.5L349.5 395.5L358 390L366.5 397L373 401V405.5L364.5 409.5L360.5 408L355.5 409.5L348.5 407L341 412.5H332V407L318.5 409L316 399H333L339.5 387.5Z" fill="white"/>
<path d="M330 394.5C330 394.1 331 389.333 331.5 387L327.5 384.5L321 386L316 391L320.5 395L325.5 397L330 394.5Z" fill="white"/>
<path d="M434.5 267L443.5 270.5L462 267L468.5 259L472.5 258L477.5 259.5L494 266L494.5 270.5L500.5 277.5L498 282L506.5 284.5L512.5 282.5L519.5 285.5C519.167 286.667 518.7 289 519.5 289C520.3 289 522.167 290 523 290.5L526.5 286.5L521.5 278.5L522 274L528.5 268.5L537.5 272.5L538.5 277L544.5 277.5L544 282L548.5 279L560.5 300.5L568.5 298.5L571 290.5L581 298.5L576 301L585.5 313.5L584 317L591 313.5L593.5 316.5L586.5 321.5L589 325.5L593 321.5L598.5 324L605.5 323L600 334.5L607 335.5L605.5 326.5L612.5 336.5L609 340L605.5 345L609 347L607 353.5L611.5 360.5L616.5 359.5L619 362.5L617.5 367L612.5 370.5L608 369.5L604 381.5L597.5 372L595.5 375.5L588.5 373.5L582.5 369L585.5 364.5L578.5 365.5L580 369.5L576.5 372L578.5 376L568 373.5L574 369L568.5 367.5L562.5 364.5L565 371.5L560 372V367L553.5 362.5L549.5 360.5L545.5 364.5L537 363L530.5 365.5L530 373.5L523.5 377L513.5 370L507 362.5L511 359L517.5 358L508.5 355.5L512.5 352L519 353L516.5 349L518 344.5L514.5 343L511.5 337.5L507.5 335.5L505 331.5V335.5L501 337.5L504 343L507 350.5L502 356.5L506 360.5L501 366.5L499.5 370L485 358H478L473 350.5L464 346.5L462 339L455 341L458.5 348.5L446.5 353L436.5 354L432.5 356.5L429.5 352L424.5 354L419.5 348.5L414.5 341.5L420.5 340L422 330.5L426.5 324.5L422.5 316.5L426.5 310.5L423.5 304.5L426 299H419.5L420.5 302.5L416 305.5L408 296.5L410 290L417.5 291.5V286.5L412.5 280L423.5 281.5L422.5 275L423.5 270.5C425.667 267.833 430.3 262.8 431.5 264L434.5 267Z" fill="white"/>
<path d="M502.5 244L522 241L524 232.5L523 220C520.167 219.5 514.6 218.4 515 218C515.4 217.6 518.5 214.167 520 212.5L522 206.5L513.5 202.5L508 198L498.5 201.5L495 205L488.5 207.5L495 214L498.5 224V230H497L496 229L494.5 227.5H492.5L490 228.5L489 229.5L490 230L490.5 231.5L492 231V232.5L493 233L492 234.5L494.5 237L494 238.5L495.5 239L498.5 237L500 238.5L502 239.5L501.5 241.5V244H502.5Z" fill="white"/>
<path d="M521 122L534.5 128.5L540 119.5L549.5 113.5C548.667 116.5 547.2 122.5 548 122.5C548.8 122.5 554.333 124.833 557 126L567 124.5L569 128H574.5C574.167 126.5 573.6 123.5 574 123.5C574.4 123.5 577.5 127.833 579 130L584 131L579 124.5V122L573 119L567 110.5L565 116L569 121L562.5 122.5L554.5 118C553.833 115.833 552.6 111.5 553 111.5C553.4 111.5 558.833 112.167 561.5 112.5L564 109.5L560 108.5C562.333 107.167 567 104.6 567 105C567 105.4 572 107.5 574.5 108.5L573 104.5L578 108.5V102L580.5 100L582 106L584 107V102L588.5 108.5L591 103L582.5 98L575.5 97L576.5 102H569L565 104.5L557.5 105L555.5 102L556 98.5L553 96L554.5 93H551.5V100L544 98L541 101L550 107.5L545.5 112.5H539L538 106L540 103.5L538.5 95.5L548.5 81.5L544 78L540 73.5L534 72.5L529.5 71L532 65.5L527.5 59.5L534 54L532.5 51L542 52L548.5 57L553 62.5L559.5 63L569 61.5L574.5 64L579.5 65L575.5 68.5L580.5 70L586 68.5L592 76.5L587.5 78L580.5 75.5L579.5 81.5L582 82.5L588.5 80L590.5 84L587 87L588.5 90L595 81.5L597 82.5V90L601 84L603 78.5L597 72.5L601.5 68L601.851 74L616.5 82.5H617L618.5 84L619.5 82L624 81.5L624.5 84L623.5 85.5L630 89L634.5 85L640 87L643.5 85L648 89.5L655.5 91.5L660 89L662.5 88.5L664.5 92.5L666.5 88.5L669.5 94.5L670.5 99L666.5 100L667.5 102L665.5 104.5L660 101.5L655 105.5L654.5 112.5L656 114.5L652.5 116L647.5 112.5L642.5 114L644.5 109.5L632.5 117.5L639 120L638 124.5L640 128L643 133L643.5 137L637 137.5L635 141.5L627 142.5L631.5 150L634.5 153H641L643 156.5L633 156L637 163.5L645 164.5L644 168.5L636.5 169L640.5 173.5L636.5 175.5L640 180L637.5 186L624.5 189L620 195.5L615 192.5L611.5 194.5L610.5 187.5L604.5 185L603.5 190L596 195L595.5 202.5L601 203L604 206.5L597 208L601 214.5L605.5 217.5L609.5 219L614 213L619 213.5L615 207.5H624.5L627 204L623 200L624 197V194L625 192L632 191L636.5 188L642 186L648 188.5L652.5 184.5L646.5 181L644.5 179.5L647 175.5L652.5 174.5L651 171L656 168L661 170.5L663 169.5L665.5 174L664.5 179.5L669.5 183L673 183.5L676 189L675 192.5L678.5 194L679 198L680.5 202L679 204L674 199H670.5L669.5 199.5V194L662.5 191.5L661 188L656 189.5L657.5 195L656.5 198L651 199L651.5 204L647.5 205.5L643.5 207.5L647 211.5L650 216L651 219L653.5 222L651.5 226L649.5 229L648 231.5L651.5 237.5L654.5 243L658.5 247L661.5 246L663 250.5L660.5 254L662.5 258L663.5 259.5L661.5 263.5L659 265.5L653 268L648 273C646.5 273.333 643.6 274 644 274C644.4 274 647.5 278 649 280L644 282L638.5 275.5L634.5 273.5L631 276.5L623.5 271L616.5 273L608 267L603 269L597 263.5L592 261L603.5 262L596 259L587 262.5L581 260.5L576.5 267L572 267.5C572 270.833 572.1 277.5 572.5 277.5C572.9 277.5 574.333 279.167 575 280H578.5L577 282L572.5 284L569.5 278L560 279.5H551.758L547.252 272.5L549 269L547.5 264L549 262L543 254.5L540 250.5H536L532 240.5L533.5 239.5L532 236.5L541.5 233L541 230L534 228L535 217.5L541 211L547 210L546 213.5L548 217L542.5 223.5L535.5 225L541.5 228.5L547.5 229C546.667 227.833 545.2 225.5 546 225.5C546.8 225.5 551.333 222.167 553.5 220.5L560.5 216.5L555 211.5L552 205.5L553.5 201.5L549.5 200L547 195L542.5 193.5L539 191.5L535.5 186.5L534 180.5L538.5 178.5L532.5 174L530 177.5L526.5 178.5V183.5L523.5 182L522.5 178L515 172L509 163L505 158.5L518 149L519.5 145.5L515.5 138.5L518 135L516 132L518 127L520.5 127.5L521 122Z" fill="white"/>
<path d="M646.5 301L650 307L651.5 310.5L657 314.5L659 313L659.5 316L665 316.5L667.5 319.5L671.5 320L674 318.5L678 317.5L683 320L682 325L688 325.5L693 327L694 330.5L697.5 331L701 330L702 327.5L702.5 324L709 325.5L712.5 328L709 327L712 333L708.5 332L714 338L719 337L717 333.5C717.833 332 719.6 329 720 329C720.4 329 724.833 330.333 727 331L728 327L730.5 325L730 328.5L734 329L734.5 328L741.5 326L742 329L743.5 331.5L746 336.5L745 340L743 341.5L741 339.5L739 342V347L741 349.5L747 347.5L753.5 344L755.5 340V335L759 330L754.5 328L757 324.5L753 321.5L761.5 319.5V313L758 312L758.5 308.5L751 312V308L753 306.5L751.5 304L747 305L745.5 304L743 306L740.5 303.5L746.5 301L746 293L752 294.5L754 296.5L751.5 299.5L752.5 301L755.5 300L757.5 297.5L762 299.5L765.5 298L766 302.5L769.5 305.5L768 308.5L770 313.5L774 312.5L772 310.5L774.5 306L777.5 305.5L779 302L787 304V298.5L783 295.5L787.5 289.5L786 288L781.5 289L780 284.5L786 286.5L790 282L794 277.5L795.5 272.5L798 265L805.5 260L809 263.5L813 259C813.5 256.5 814.5 251.6 814.5 252C814.5 252.4 816.5 250.167 817.5 249L818.5 245L827 243L829.5 239.5L822.5 235.5L819.5 237L816 236.5L813.5 240L809 232.5L806.5 233.5L801 230.5L805.5 228L803.5 222L798.5 220L796.5 223.5L790.5 221.5L785 223.5L779.5 223L780 227L776.5 229.5V232L771.5 232.5L768 237L764.5 240.5L771.5 240L767 241.5L766.5 245.5L763 247L768 249L763.5 251.5L758 247L761.5 244L759 240L762.5 239.5L760.5 235.5L767.5 234L766.5 226.5L764 223.5V219.5L759 215.5L763 210L766.5 207.5L761.5 206.5L761 209.5L759 211.5L753.5 209L758.5 203L760 199.5L761.5 199L753.5 198.5L749 196.5L746.5 193L739.5 198.5L741.5 201L737 203L736.5 205.5L739 206.5L740.5 214L736 219.5L737 224L734 230L735.5 233L733.5 236L734.5 240L724 243.5L722.5 249.5L719 250L722 254L718.5 253.5L716.5 256L720.5 260L718 262V267L715 264.5L713.5 270L710.5 265L706.5 264L707.5 260L701.5 256.5L699 264.5L693 265.5L688.5 263L684.5 262L686.5 256.5L691 256L695 256.5L696.5 252.5L691.5 250L688 251L691.5 244L693.5 242.5L688.5 240L685 236.5L681 235.5L678 239.5L673.5 238L670.5 241.5L669.5 245.5L671.5 249L674 252L673 254.5C671.333 254.833 668 255.6 668 256C668 256.4 670 259.5 671 261L669.5 263L673 262.5L678 260.5L682 264L683.5 265L681 266.5L676 264.5L672 265L668 264L669 269H675C675.5 268.833 676.2 268.9 675 270.5C673.8 272.1 674.167 274.167 674.5 275L672 277H671L668.5 282.5L666.5 280.5C664.833 278.167 661.4 273.5 661 273.5C660.6 273.5 661.5 270.5 662 269L660 267.5L649.5 279L653.5 286.5L651.5 287.5L654.5 291.5V298L656.5 300.5L652 305L649.5 299.5L646.5 301Z" fill="white"/>
<path d="M744.5 168.5L751.5 173.5L754 180L756.5 187L766.5 184L772 182.5L774 185L775.5 179L780 177.5L782 173.5L774 169.5L768.5 168.5L760 173L757 165.5L761.5 164.5L758 160L763.5 160.5L762.5 155L768.5 157L770.5 149.5L775.5 145L775 141L779 138.5L785.5 141L791 138.5C789.667 136.5 787.2 132.4 788 132C788.8 131.6 792.333 128.5 794 127L800 133.5L806 135.5L811 129.5L814 125.5L808.5 115.5L801 113.5L795.5 114.5L800 124V126L794 119.5L789 124H781L773 116.5H782L776.5 110.5L778.5 105.5L780 95.5H784L787 93.5L792.5 96L795.5 94.5L797 99L802.5 100.5L806 98.5L802.5 92.5L803.5 89L795.5 83L797.5 79.5L793.5 73.5C792.333 74.6667 790 76.9 790 76.5C790 76.1 792.667 69 794 65.5L800 64.5L804.5 57.5L800 51.5L805 47L810.5 38.5L815 37L811.5 33L804.5 29.5L800 35.5H797L795 39H788L789 45L783.5 51.5H775.5L766 59L774.5 59.5L770.5 63.5L766 66.5C763 65.1667 757.1 62.5 757.5 62.5C757.9 62.5 760.667 60.1667 762 59L762.5 53L767.5 49.5L763 45.5L761.5 40.5L757.5 45.5L753.5 42.5L752.5 47L747.5 43V38.5L743.5 39L739.5 35L735.5 31L732 30L723.5 27.5L717.5 29L715.5 32L710.5 33L711 39.5L709.5 47L704 54.5L706 56L704 64.5L691 62.5H685L693 66.5L692 71L686 72.5L691 80L695 81.5L694 86L696.5 88.5L694 91L699.5 92.5L703 106.5L704.5 108L699.5 116L703 121.5L699.5 125L707.5 127L712.5 124L721 128.5L717.5 133L712.5 128.5V135L715.5 137L707.5 141.5L711.5 145L714 146.5L710 148.5L703 142.5L699.5 146L706.5 151L698 156V163.5L696 172L706.5 168.5L708.5 170.5C708.333 171.833 708.6 173.4 711 169C713.4 164.6 715.667 164.833 716.5 165.5H722L726 161L727.5 164.5L733 162L735.5 158.5C734.5 157.667 732.4 156 732 156C731.5 156 733 152 735 151.5C736.6 151.1 737 152 737 152.5L739.5 141.5L746 138.5L752.5 139L755 142.5L760 141.5L764 148L762.5 151.5L755 152.5L748 151.5L744.5 150V157.5L748 162L741.5 163.5L744.5 168.5Z" fill="white"/>
<path d="M752.5 394.5C754.5 394.1 762 392.667 765.5 392L770 397L772 390.5C772.833 391.667 774.6 393.9 775 393.5C775.4 393.1 777.833 390 779 388.5L784 394.5L787.5 398C786.5 399.5 784.7 402.5 785.5 402.5C786.3 402.5 793.5 402.833 797 403L796.5 411L789 409L784 415L776 413.5L771.5 409.5L769 413.5L761.5 410.5L758 413.5L756 408L753 412.5L748 415C746.167 415 742.6 414.8 743 414C743.4 413.2 744.5 409.333 745 407.5L741.5 405L745 402L746 398L748 399L752.5 394.5Z" fill="white"/>
<path d="M698 372.5L699.5 367.5L694 363L689 364C690.333 367.333 693.1 373.8 693.5 373C693.9 372.2 696.667 372.333 698 372.5Z" fill="white"/>
<path d="M652.5 354.5L651.5 351L656.5 349.5L653.5 340H665L656 335.5L642.5 336.5L638.5 338.5V344L635.5 346L643.5 350.5L642.5 354.5H652.5Z" fill="white"/>
<path d="M321.5 36.5C321.9 36.1 326 29 328 25.5L332 31.5L337 27L331 15.5H322L333.5 13.5L328 8.5L320 4L313 15L308.5 8.5L306.5 16L312.5 28V31L321.5 36.5Z" fill="white"/>
<path d="M445.5 23.5C445.9 24.3 450.333 29.8333 452.5 32.5L450 42L444.5 39.5L445.5 23.5Z" fill="white"/>
<path d="M463 45.5L471 55L476 54L476.5 58L465.5 63L458.5 61.5L454.5 63C451.5 62.3333 445.5 60.8 445.5 60C445.5 59.2 444.833 53 444.5 50L458.5 44L460.5 40.5H466.5L463 45.5Z" fill="white"/>
<path d="M455 3.5L449 11.5L446.5 17.5H453.5C453.9 17.5 457.667 14.1667 459.5 12.5L465.5 10L455 3.5Z" fill="white"/>
<path d="M478 58C478.4 58.4 486.5 63.5 490.5 66L478 67.5L473 66L478 58Z" fill="white"/>
<path d="M378 63L386 65.5L396.5 64.5L399 72.5H390L385 73L378 68.5V63Z" fill="white"/>
</svg>
